<?xml version="1.0" encoding="UTF-8" standalone="no"?>
<!-- Generator: Adobe Illustrator 21.1.0, SVG Export Plug-In . SVG Version: 6.00 Build 0)  -->

<svg
   version="1.1"
   id="Icons"
   x="0px"
   y="0px"
   viewBox="0 0 48 48"
   style="enable-background:new 0 0 48 48;"
   xml:space="preserve"
   sodipodi:docname="RobotArtist.svg"
   inkscape:version="1.2 (dc2aedaf03, 2022-05-15)"
   xmlns:inkscape="http://www.inkscape.org/namespaces/inkscape"
   xmlns:sodipodi="http://sodipodi.sourceforge.net/DTD/sodipodi-0.dtd"
   xmlns="http://www.w3.org/2000/svg"
   xmlns:svg="http://www.w3.org/2000/svg"><defs
   id="defs842" /><sodipodi:namedview
   id="namedview840"
   pagecolor="#ffffff"
   bordercolor="#666666"
   borderopacity="1.0"
   inkscape:showpageshadow="2"
   inkscape:pageopacity="0.0"
   inkscape:pagecheckerboard="0"
   inkscape:deskcolor="#d1d1d1"
   showgrid="false"
   inkscape:zoom="17.640092"
   inkscape:cx="18.792419"
   inkscape:cy="25.028215"
   inkscape:window-width="1920"
   inkscape:window-height="1043"
   inkscape:window-x="1920"
   inkscape:window-y="0"
   inkscape:window-maximized="1"
   inkscape:current-layer="g1248" />
<style
   type="text/css"
   id="style769">
	.st0{fill:#FFE500;}
	.st1{fill:#FFA694;}
	.st2{fill:#FFF48C;}
	.st3{fill:none;stroke:#45413C;stroke-linecap:round;stroke-linejoin:round;stroke-miterlimit:10;}
	.st4{fill:#FF866E;}
	.st5{opacity:0.15;fill:#45413C;}
	.st6{fill:none;stroke:#45413C;stroke-linecap:round;stroke-miterlimit:10;}
	.st7{fill:#FF6242;}
	.st8{fill:#FFB0CA;stroke:#45413C;stroke-linecap:round;stroke-linejoin:round;stroke-miterlimit:10;}
	.st9{fill:#FF866E;stroke:#45413C;stroke-linecap:round;stroke-linejoin:round;stroke-miterlimit:10;}
	.st10{fill:#FFFFFF;stroke:#45413C;stroke-linecap:round;stroke-linejoin:round;stroke-miterlimit:10;}
	.st11{fill:#FFE500;stroke:#45413C;stroke-linecap:round;stroke-linejoin:round;stroke-miterlimit:10;}
	.st12{fill:#45413C;stroke:#45413C;stroke-linecap:round;stroke-linejoin:round;stroke-miterlimit:10;}
	.st13{fill:#00B8F0;}
	.st14{fill:#4ACFFF;}
	.st15{fill:#B89558;stroke:#45413C;stroke-linecap:round;stroke-linejoin:round;stroke-miterlimit:10;}
	.st16{fill:#B89558;}
	.st17{fill:#F7E5C6;}
	.st18{fill:#DEBB7E;}
	.st19{fill:#947746;stroke:#45413C;stroke-miterlimit:10;}
	.st20{fill:#FF866E;stroke:#45413C;stroke-miterlimit:10;}
	.st21{fill:#FFF5E3;stroke:#45413C;stroke-linecap:round;stroke-linejoin:round;stroke-miterlimit:10;}
	.st22{fill:#DEBB7E;stroke:#45413C;stroke-linecap:round;stroke-linejoin:round;stroke-miterlimit:10;}
	.st23{fill:#B89558;stroke:#45413C;stroke-miterlimit:10;}
	.st24{fill:#FFAA54;}
	.st25{fill:#724F3D;}
	.st26{fill:#A86C4D;}
	.st27{fill:#FFDA8F;}
	.st28{fill:#FFE9BD;}
	.st29{fill:#FFBE3D;}
	.st30{fill:#614B44;}
	.st31{fill:#947063;}
	.st32{fill:#D18660;}
	.st33{fill:#E09F7E;}
	.st34{fill:#BD704A;}
	.st35{fill:#FFDA8F;stroke:#45413C;stroke-linecap:round;stroke-linejoin:round;stroke-miterlimit:10;}
	.st36{fill:#D18660;stroke:#45413C;stroke-miterlimit:10;}
	.st37{fill:#DE926A;}
	.st38{fill:#FFCEBF;stroke:#45413C;stroke-linecap:round;stroke-linejoin:round;stroke-miterlimit:10;}
	.st39{fill:#FFB59E;}
	.st40{fill:#E0E0E0;}
	.st41{fill:#FFFFFF;}
	.st42{fill:#FFCEBF;}
	.st43{fill:#FFDCD1;}
	.st44{fill:#F0F0F0;stroke:#45413C;stroke-linecap:round;stroke-linejoin:round;stroke-miterlimit:10;}
	.st45{fill:#00DFEB;stroke:#45413C;stroke-linecap:round;stroke-linejoin:round;stroke-miterlimit:10;}
	.st46{fill:#EBCB00;}
	.st47{fill:#87898C;stroke:#45413C;stroke-linecap:round;stroke-linejoin:round;stroke-miterlimit:10;}
	.st48{fill:#C0DCEB;stroke:#45413C;stroke-linecap:round;stroke-linejoin:round;stroke-miterlimit:10;}
	.st49{fill:#E8F4FA;}
	.st50{fill:#80DDFF;}
	.st51{fill:#FF6196;}
	.st52{fill:#FF6196;stroke:#45413C;stroke-linecap:round;stroke-linejoin:round;stroke-miterlimit:10;}
	.st53{fill:#724F3D;stroke:#45413C;stroke-linecap:round;stroke-linejoin:round;stroke-miterlimit:10;}
	.st54{fill:#656769;stroke:#45413C;stroke-linecap:round;stroke-linejoin:round;stroke-miterlimit:10;}
	.st55{fill:#DAEDF7;stroke:#45413C;stroke-linecap:round;stroke-linejoin:round;stroke-miterlimit:10;}
	.st56{fill:#F0D5A8;}
	.st57{fill:#DAEDF7;}
	.st58{fill:#A86C4D;stroke:#45413C;stroke-linecap:round;stroke-linejoin:round;stroke-miterlimit:10;}
	.st59{fill:#FF6242;stroke:#45413C;stroke-linecap:round;stroke-linejoin:round;stroke-miterlimit:10;}
	.st60{fill:#009FD9;stroke:#45413C;stroke-linecap:round;stroke-linejoin:round;stroke-miterlimit:10;}
	.st61{fill:#656769;}
	.st62{fill:#525252;}
	.st63{fill:#525252;stroke:#45413C;stroke-linecap:round;stroke-linejoin:round;stroke-miterlimit:10;}
	.st64{fill:#6DD627;}
	.st65{fill:#009FD9;}
	.st66{fill:#ADC4D9;}
	.st67{fill:#C0DCEB;}
	.st68{fill:#FF8A14;}
	.st69{fill:#EB6D00;}
	.st70{fill:#00DBA8;stroke:#45413C;stroke-linecap:round;stroke-linejoin:round;stroke-miterlimit:10;}
	.st71{fill:#B8ECFF;}
	.st72{fill:#FF87AF;}
	.st73{fill:#80DDFF;stroke:#45413C;stroke-linecap:round;stroke-linejoin:round;stroke-miterlimit:10;}
	.st74{fill:#00DBA8;}
	.st75{fill:#00F5BC;}
	.st76{fill:#E5FEFF;stroke:#45413C;stroke-linecap:round;stroke-linejoin:round;stroke-miterlimit:10;}
	.st77{fill:#46B000;}
	.st78{fill:#46B000;stroke:#45413C;stroke-linecap:round;stroke-linejoin:round;stroke-miterlimit:10;}
	.st79{fill:#BF8256;stroke:#45413C;stroke-linecap:round;stroke-linejoin:round;stroke-miterlimit:10;}
	.st80{fill:#ADC4D9;stroke:#45413C;stroke-linecap:round;stroke-linejoin:round;stroke-miterlimit:10;}
	.st81{fill:#BDBEC0;}
	.st82{fill:#F0F0F0;}
	.st83{fill:#FFB59E;stroke:#45413C;stroke-linecap:round;stroke-linejoin:round;stroke-miterlimit:10;}
	.st84{fill:#45413C;}
	.st85{fill:#E04122;}
	.st86{fill:none;stroke:#48CF3E;stroke-linecap:round;stroke-linejoin:round;stroke-miterlimit:10;}
	.st87{fill:none;stroke:#FF4064;stroke-linecap:round;stroke-linejoin:round;stroke-miterlimit:10;}
	.st88{fill:none;stroke:#FFB700;stroke-linecap:round;stroke-linejoin:round;stroke-miterlimit:10;}
	.st89{fill:#BF8DF2;}
	.st90{fill:#9F5AE5;}
	.st91{fill:#00AD85;}
	.st92{fill:#8CA4B8;}
	.st93{fill:#627B8C;}
	.st94{fill:#627B8C;stroke:#45413C;stroke-linecap:round;stroke-linejoin:round;stroke-miterlimit:10;}
	.st95{fill:#87898C;}
	.st96{fill:#FF8A14;stroke:#45413C;stroke-linecap:round;stroke-linejoin:round;stroke-miterlimit:10;}
	.st97{fill:#E04122;stroke:#45413C;stroke-linecap:round;stroke-linejoin:round;stroke-miterlimit:10;}
	.st98{fill:#EBCB00;stroke:#45413C;stroke-linecap:round;stroke-linejoin:round;stroke-miterlimit:10;}
	.st99{fill:#6DD627;stroke:#45413C;stroke-linecap:round;stroke-linejoin:round;stroke-miterlimit:10;}
	.st100{fill:#FFB0CA;}
	.st101{fill:#FFB59E;stroke:#FFAA54;stroke-miterlimit:10;}
	.st102{fill:#FF87AF;stroke:#45413C;stroke-linecap:round;stroke-linejoin:round;stroke-miterlimit:10;}
</style>
<g
   id="g837">
	
	<g
   id="g808">
		<ellipse
   id="XMLID_2805_"
   class="st5"
   cx="23.3"
   cy="45.5"
   rx="17"
   ry="1.5" />
		<path
   id="XMLID_2804_"
   class="st41"
   d="M35.9,45H12.1v-1.9c0-6.6,5.3-11.9,11.9-11.9h0c6.6,0,11.9,5.3,11.9,11.9V45z" />
		<path
   class="st82"
   d="M24,31.2c-6.6,0-11.9,5.3-11.9,11.9V45h0.1C13,39.2,18,34.7,24,34.7S35,39.2,35.8,45h0.1v-1.9    C35.9,36.5,30.6,31.2,24,31.2z"
   id="path774" />
		<path
   id="XMLID_2803_"
   class="st3"
   d="M35.9,45H12.1v-1.9c0-6.6,5.3-11.9,11.9-11.9h0c6.6,0,11.9,5.3,11.9,11.9V45z" />
		<ellipse
   id="XMLID_2802_"
   class="st74"
   cx="24"
   cy="33.6"
   rx="4.7"
   ry="3.5" />
		<path
   id="XMLID_2801_"
   class="st91"
   d="M24,30.1c-2.1,0-3.9,1.1-4.5,2.5c0.6,1.4,2.4,2.5,4.5,2.5s3.9-1.1,4.5-2.5    C27.9,31.2,26.1,30.1,24,30.1z" />
		<ellipse
   id="XMLID_2800_"
   class="st3"
   cx="24"
   cy="33.6"
   rx="4.7"
   ry="3.5" />
		
		<line
   id="XMLID_2798_"
   class="st3"
   x1="17.1"
   y1="45"
   x2="17.1"
   y2="42.6" />
		<line
   id="XMLID_2797_"
   class="st3"
   x1="30.9"
   y1="45"
   x2="30.9"
   y2="42.6" />
		<path
   id="XMLID_2796_"
   class="st70"
   d="M26.1,37.1c0,0,0.8,1.1,2.1,1.4c1.3,0.4,2.1-0.2,2.7,0.2c-0.8-2.3-2.8-3.4-4-2.9    S26.1,37.1,26.1,37.1z" />
		<path
   id="XMLID_2795_"
   class="st70"
   d="M24.9,37.1c0,0-0.7,1.4-0.3,2.9s1.4,2.1,1.3,2.9c1.9-2.1,2-4.7,0.7-5.7    C25.4,36.2,24.9,37.1,24.9,37.1z" />
		<path
   id="XMLID_2794_"
   class="st70"
   d="M24,35.1c0,0,0.6,0.3,0.8,0.8c0.2,0.5,0.1,1.2,0.1,1.2s1,0.5,1.8,0s1.1-1.7,0.5-2.6    S25.2,33.5,24,35.1z" />
		<path
   id="XMLID_2793_"
   class="st18"
   d="M7.2,45c0,0-6.7-7.6-0.9-8.4c6.2-0.9,13,8.4,13,8.4H7.2z" />
		<path
   id="XMLID_2792_"
   class="st56"
   d="M6.3,39.4c3.9-0.6,8,2.9,10.6,5.6h2.4c0,0-6.8-9.4-13-8.4c-2.5,0.4-2.7,2.1-2,3.9    C4.7,39.9,5.3,39.6,6.3,39.4z" />
		<path
   id="XMLID_2791_"
   class="st3"
   d="M7.2,45c0,0-6.7-7.6-0.9-8.4c6.2-0.9,13,8.4,13,8.4H7.2z" />
		
			<ellipse
   id="XMLID_2790_"
   transform="matrix(0.5731 -0.8195 0.8195 0.5731 -28.3896 24.1664)"
   class="st59"
   cx="9"
   cy="39.3"
   rx="0.9"
   ry="1.7" />
		
			<ellipse
   id="XMLID_2789_"
   transform="matrix(0.5731 -0.8195 0.8195 0.5731 -28.4243 28.9898)"
   class="st11"
   cx="13.6"
   cy="41.8"
   rx="0.9"
   ry="1.7" />
		<polygon
   id="XMLID_2788_"
   class="st55"
   points="39,36.3 36.9,35.8 38.4,28.9 41,29.5   " />
		
			<rect
   id="XMLID_2787_"
   x="35.9"
   y="36"
   transform="matrix(0.9711 0.2387 -0.2387 0.9711 10.6387 -7.6754)"
   class="st79"
   width="2.2"
   height="8.2" />
		<path
   id="XMLID_2786_"
   class="st21"
   d="M38.4,28.9c-0.6-1.2,0.2-2.8,1.1-3.5c1.1-0.9,1.3-1.8,1.3-1.8s2.1,1.4,1.5,3.8    C41.9,29,41,29.5,41,29.5L38.4,28.9z" />
		<path
   id="XMLID_2785_"
   class="st59"
   d="M38.7,26.2c0.5,0.3,1,0.5,1.6,0.6c0.7,0.2,1.4,0.2,2,0.2c0.4-2.2-1.6-3.5-1.6-3.5    s-0.2,1-1.3,1.8C39.2,25.6,39,25.9,38.7,26.2z" />
		<path
   id="XMLID_2784_"
   class="st42"
   d="M34.7,44.7L34.7,44.7l1.6-6.5c0.2-0.8-0.3-1.7-1.1-1.9h0c-0.4-0.1-0.9,0.2-1,0.6l-1.2,5    C32.7,43.1,33.5,44.4,34.7,44.7z" />
		<path
   id="XMLID_2783_"
   class="st43"
   d="M35.2,36.3c-0.4-0.1-0.9,0.2-1,0.6l-0.5,1.9c0.1-0.4,0.5-0.7,1-0.6c0.8,0.2,1.3,1,1.1,1.9    l0.5-1.9C36.6,37.3,36,36.5,35.2,36.3z" />
		<path
   id="XMLID_2782_"
   class="st3"
   d="M34.7,44.7L34.7,44.7l1.6-6.5c0.2-0.8-0.3-1.7-1.1-1.9h0c-0.4-0.1-0.9,0.2-1,0.6l-1.2,5    C32.7,43.1,33.5,44.4,34.7,44.7z" />
		<path
   id="XMLID_2781_"
   class="st42"
   d="M38.9,38.6L37,38.1c-0.6-0.2-1.2,0.2-1.4,0.8c-0.1,0.6,0.2,1.2,0.8,1.4    c-0.6-0.1-1.2,0.2-1.3,0.8c-0.2,0.6,0.2,1.2,0.8,1.4c-0.6-0.2-1.2,0.2-1.4,0.8c-0.2,0.6,0.2,1.2,0.8,1.4l1.9,0.5h0    c1.2,0.3,2.4-0.4,2.6-1.6l0.6-2.4C40.8,40.1,40.1,38.9,38.9,38.6L38.9,38.6z" />
		<g
   id="XMLID_2779_">
			<path
   id="XMLID_2780_"
   class="st43"
   d="M38.9,38.6L37,38.1c-0.6-0.2-1.2,0.2-1.4,0.8c-0.1,0.2,0,0.4,0,0.6     c0.3-0.3,0.7-0.4,1.1-0.3l1.9,0.5c1.2,0.3,1.9,1.5,1.6,2.6l0.3-1.1C40.8,40.1,40.1,38.9,38.9,38.6z" />
		</g>
		<path
   id="XMLID_2778_"
   class="st3"
   d="M38.9,38.6L37,38.1c-0.6-0.2-1.2,0.2-1.4,0.8c-0.1,0.6,0.2,1.2,0.8,1.4    c-0.6-0.1-1.2,0.2-1.3,0.8c-0.2,0.6,0.2,1.2,0.8,1.4c-0.6-0.2-1.2,0.2-1.4,0.8c-0.2,0.6,0.2,1.2,0.8,1.4l1.9,0.5h0    c1.2,0.3,2.4-0.4,2.6-1.6l0.6-2.4C40.8,40.1,40.1,38.9,38.9,38.6L38.9,38.6z" />
	</g><g
   stroke-linejoin="round"
   stroke="#111111"
   stroke-width="0.7"
   fill="#aaaabb"
   id="g1248"
   transform="matrix(1.4330183,0,0,1.4747615,10.26016,7.1732444)"><rect
     height="14.58446"
     width="15.843168"
     y="3.329283"
     x="2.0376685"
     stroke-width="0.956044"
     id="rect1232"
     inkscape:label="rect1232" /><g
     fill="#ff8877"
     id="g1242"><ellipse
       rx="2.7"
       ry="2.5"
       cy="7.5"
       cx="6.5999999"
       id="ellipse1234" /><ellipse
       rx="2.7"
       ry="2.5"
       cy="7.5"
       cx="13.5"
       id="ellipse1236" /><circle
       r="0.5"
       cy="7.3000002"
       cx="6.6999998"
       id="circle1238" /><circle
       r="0.5"
       cy="7.3000002"
       cx="13.7"
       id="circle1240" /></g><rect
     height="4.3000002"
     width="11.4"
     y="12.4"
     x="4.4000001"
     fill="#eeeeee"
     id="rect1244" /><path
     fill="none"
     d="m 6.503,12.32 v 4.26 m 6.757,-4.26 v 4.26 M 8.713,12.32 v 4.26 m 2.277,-4.26 v 4.26 M 4.419,14.36 h 11.24"
     id="path1246"
     style="fill:#45413c;fill-opacity:1" /><path
     style="fill:#45413c;fill-opacity:1;stroke:#45413c;stroke-width:0.0288055;stroke-opacity:1"
     d="m 12.94191,34.220246 c -0.153357,-0.06845 -0.330484,-0.254239 -0.388315,-0.407299 -0.03044,-0.08056 -0.04377,-2.853284 -0.04377,-9.103155 0,-8.745399 0.0021,-8.988423 0.07716,-9.028604 0.04243,-0.02271 0.116439,-0.124864 0.164452,-0.227007 0.09691,-0.206177 0.242842,-0.2982 0.776873,-0.489898 l 0.298343,-0.107094 v 9.031704 9.031704 h 10.699101 10.699102 l 0.01038,-9.007229 0.01038,-9.007228 0.329206,0.112111 c 0.499747,0.170188 0.666522,0.268671 0.757727,0.447449 0.04392,0.08608 0.108978,0.18069 0.144582,0.210238 0.05852,0.04857 0.06467,0.919114 0.06406,9.070987 l -6.77e-4,9.017262 -0.09208,0.164603 c -0.06067,0.108457 -0.154653,0.196185 -0.275523,0.257192 l -0.18344,0.09259 -11.462051,-0.0016 c -9.484759,-0.0013 -11.483348,-0.01112 -11.585503,-0.05672 z"
     id="path4074"
     transform="matrix(0.69782779,0,0,0.67807574,-7.1598248,-4.864003)" /><path
     style="fill:#45413c;fill-opacity:1;stroke:#45413c;stroke-width:0.0150533;stroke-opacity:1"
     d="m 16.340964,32.239931 c -0.138352,-0.07228 -0.223094,-0.195587 -0.255698,-0.372076 -0.01484,-0.08034 -0.02029,-1.184908 -0.01638,-3.322472 l 0.0059,-3.202125 0.05527,-0.107523 c 0.07034,-0.136831 0.200678,-0.237158 0.347491,-0.267475 0.08084,-0.01669 2.469761,-0.02178 8.328134,-0.01775 7.968113,0.0055 8.217046,0.0069 8.290052,0.04575 0.105344,0.05611 0.189585,0.138821 0.243897,0.239473 l 0.04642,0.08602 0.0056,3.267717 c 0.0062,3.594024 0.01387,3.375293 -0.124067,3.542639 -0.03538,0.04292 -0.106095,0.09825 -0.157154,0.122971 l -0.09283,0.04494 h -8.280807 -8.280806 z m 2.755186,-2.165645 v -1.215014 h -1.021472 -1.021472 v 1.215014 1.215014 h 1.021472 1.021472 z m 3.161187,0 v -1.215014 h -1.096738 -1.096738 v 1.215014 1.215014 h 1.096738 1.096738 z m 3.268711,0 V 28.859272 H 24.3863 23.246552 v 1.215014 1.215014 h 1.139748 1.139748 z m 3.247206,0 v -1.215014 h -1.139748 -1.139748 v 1.215014 1.215014 h 1.139748 1.139748 z m 3.634289,0 v -1.215014 h -1.322537 -1.322537 v 1.215014 1.215014 h 1.322537 1.322537 z M 19.09615,26.902347 v -0.946206 h -1.021472 -1.021472 v 0.946206 0.946206 h 1.021472 1.021472 z m 3.161187,0 v -0.946206 h -1.096738 -1.096738 v 0.946206 0.946206 h 1.096738 1.096738 z m 3.268711,0 V 25.956141 H 24.3863 23.246552 v 0.946206 0.946206 h 1.139748 1.139748 z m 3.247206,0 v -0.946206 h -1.139748 -1.139748 v 0.946206 0.946206 h 1.139748 1.139748 z m 3.634289,0 v -0.946206 h -1.322537 -1.322537 v 0.946206 0.946206 h 1.322537 1.322537 z"
     id="path4076"
     transform="matrix(0.69782779,0,0,0.67807574,-7.1598248,-4.864003)" /><path
     style="fill:#45413c;fill-opacity:1;stroke:#45413c;stroke-width:0.0150533;stroke-opacity:1"
     d="m 19.375711,22.414593 c -0.52061,-0.0391 -1.092614,-0.192705 -1.580593,-0.424448 -1.266962,-0.601684 -2.134316,-1.72685 -2.380081,-3.087537 -0.0538,-0.297884 -0.06495,-0.915264 -0.02186,-1.210891 0.199295,-1.367321 1.056219,-2.543063 2.309943,-3.169353 0.575248,-0.287361 1.060735,-0.41641 1.734613,-0.461082 0.795142,-0.05271 1.509521,0.08376 2.213199,0.422805 1.279179,0.616328 2.136336,1.735643 2.370864,3.095984 0.06107,0.354237 0.06641,0.918756 0.0118,1.247271 -0.122531,0.737048 -0.40692,1.3865 -0.852211,1.946173 -0.186505,0.234411 -0.562508,0.600611 -0.789185,0.768609 -0.858498,0.636261 -1.951668,0.952442 -3.016487,0.872469 z m 0.68815,-1.017851 c 1.334665,-0.138291 2.439529,-0.972211 2.857499,-2.15676 0.122748,-0.347876 0.160775,-0.583734 0.161873,-1.004019 0.0011,-0.413602 -0.0237,-0.579851 -0.14105,-0.946205 -0.322473,-1.006749 -1.229253,-1.83727 -2.313566,-2.118999 -0.845677,-0.219725 -1.755659,-0.121687 -2.521682,0.271677 -0.878252,0.450995 -1.47365,1.201301 -1.694642,2.135545 -0.05049,0.213462 -0.05648,0.281751 -0.05673,0.64723 -2.18e-4,0.317166 0.0086,0.449488 0.03932,0.591379 0.0895,0.413133 0.244656,0.781281 0.479418,1.137535 0.167504,0.254188 0.600879,0.684059 0.867059,0.860047 0.694516,0.459188 1.518509,0.665875 2.322505,0.58257 z"
     id="path4078"
     transform="matrix(0.69782779,0,0,0.67807574,-7.1598248,-4.864003)" /><path
     style="fill:#45413c;fill-opacity:1;stroke:#45413c;stroke-width:0.0150533;stroke-opacity:1"
     d="m 19.676777,19.167323 c -0.463452,-0.07749 -0.88091,-0.478468 -0.989783,-0.950703 -0.09397,-0.40761 0.04763,-0.886255 0.348566,-1.17823 0.549478,-0.533115 1.457932,-0.408376 1.851544,0.254233 0.170166,0.286457 0.22469,0.677587 0.136,0.975597 -0.180649,0.607004 -0.763875,0.996493 -1.346327,0.899103 z m 0.335472,-1.06899 c 0.05857,-0.05857 0.07312,-0.09009 0.07312,-0.158384 0,-0.166584 -0.158442,-0.274816 -0.309754,-0.211593 -0.156181,0.06526 -0.18535,0.277044 -0.05344,0.388035 0.09633,0.08106 0.197248,0.07478 0.290082,-0.01806 z"
     id="path4080"
     transform="matrix(0.69782779,0,0,0.67807574,-7.1598248,-4.864003)" /><path
     style="fill:#45413c;fill-opacity:1;stroke:#45413c;stroke-width:0.0250714;stroke-opacity:1"
     d="M 28.926225,22.367187 C 28.007977,22.216943 27.204931,21.820414 26.554716,21.196181 25.928573,20.59506 25.55705,19.95185 25.358884,19.125863 c -0.365696,-1.524274 0.262524,-3.197249 1.570778,-4.183048 0.693881,-0.522855 1.659467,-0.868826 2.416736,-0.86592 0.578571,0.0022 1.350012,0.09204 1.644468,0.191469 1.333212,0.450183 2.393434,1.502655 2.780925,2.760598 0.717738,2.330043 -0.740298,4.724143 -3.220552,5.28816 -0.414904,0.09435 -1.20549,0.118707 -1.625014,0.05007 z m 1.57129,-1.055853 c 1.170238,-0.31534 2.073043,-1.172875 2.383007,-2.263514 0.114146,-0.401637 0.13171,-0.999197 0.04206,-1.430895 -0.353228,-1.700875 -2.078266,-2.815957 -3.899374,-2.520594 -1.181544,0.191632 -2.184742,0.976393 -2.589331,2.025526 -0.704321,1.826367 0.426632,3.786862 2.435839,4.222503 0.450972,0.09778 1.198668,0.08261 1.627802,-0.03303 z"
     id="path4082"
     transform="matrix(0.69782779,0,0,0.67807574,-7.1598248,-4.864003)" /><path
     style="fill:#45413c;fill-opacity:1;stroke:#45413c;stroke-width:0.0250714;stroke-opacity:1"
     d="m 29.493252,19.097 c -0.246815,-0.103517 -0.402293,-0.219011 -0.531159,-0.394561 -0.19514,-0.265835 -0.255454,-0.449935 -0.254923,-0.77812 4.09e-4,-0.252213 0.015,-0.317748 0.11675,-0.524435 0.294566,-0.598349 0.956834,-0.850681 1.539193,-0.586451 0.255784,0.116055 0.457462,0.315265 0.606396,0.598975 0.08828,0.168164 0.100445,0.230201 0.100735,0.513612 2.87e-4,0.278747 -0.01327,0.351412 -0.10022,0.537243 -0.128116,0.273814 -0.393745,0.527236 -0.655145,0.625038 -0.243554,0.09113 -0.615703,0.09507 -0.821627,0.0087 z m 0.565514,-1.002894 c 0.136776,-0.11747 0.02446,-0.400891 -0.158865,-0.400891 -0.09817,0 -0.244068,0.133599 -0.244068,0.223495 0,0.102769 0.06727,0.206977 0.154561,0.239429 0.08882,0.03302 0.157736,0.01581 0.248372,-0.06203 z"
     id="path4084"
     transform="matrix(0.69782779,0,0,0.67807574,-7.1598248,-4.864003)" /><path
     style="fill:#ff6242;fill-opacity:1;stroke:#ff6242;stroke-width:0.0372291;stroke-opacity:1"
     d="m 19.013431,21.301433 c -2.137234,-0.470496 -3.23433,-2.623887 -2.273546,-4.462539 0.547117,-1.047016 1.733855,-1.735888 2.986747,-1.733732 0.959373,0.0017 1.698581,0.306406 2.377707,0.980263 0.668954,0.663765 0.924516,1.259971 0.924516,2.156832 0,0.879769 -0.25364,1.476267 -0.907709,2.134703 -0.316516,0.318629 -0.500099,0.452606 -0.85148,0.621401 -0.736934,0.354005 -1.536804,0.461449 -2.256235,0.303072 z m 1.39266,-2.213001 c 0.599304,-0.290118 0.86962,-1.116013 0.563944,-1.723018 -0.359711,-0.714307 -1.284929,-0.92048 -1.872758,-0.41732 -0.909658,0.778633 -0.413354,2.251482 0.758678,2.251482 0.216434,0 0.395111,-0.0361 0.550136,-0.111144 z"
     id="path4362"
     transform="matrix(0.69782779,0,0,0.67807574,-7.1598248,-4.864003)" /><path
     style="fill:#ff6242;fill-opacity:1;stroke:#ff6242;stroke-width:0.0372291;stroke-opacity:1"
     d="m 28.989163,21.322253 c -1.312757,-0.257509 -2.354216,-1.206264 -2.635986,-2.401349 -0.365678,-1.550973 0.550813,-3.082851 2.192216,-3.664197 0.437764,-0.155045 1.353099,-0.192644 1.849504,-0.07597 0.626535,0.147258 1.113801,0.423632 1.597996,0.906373 0.667286,0.665284 0.928857,1.272386 0.927633,2.153026 -0.0012,0.855786 -0.274173,1.500039 -0.903125,2.131418 -0.307997,0.309184 -0.502598,0.451319 -0.85133,0.621802 -0.69451,0.339523 -1.501323,0.46142 -2.176908,0.328897 z m 1.405734,-2.222602 c 0.643928,-0.295388 0.904117,-1.067019 0.588425,-1.745063 -0.421661,-0.905643 -1.727644,-0.912179 -2.176773,-0.0109 -0.331485,0.665203 -0.07196,1.453343 0.577844,1.754841 0.276136,0.128122 0.732542,0.128627 1.010504,0.0011 z"
     id="path4364"
     transform="matrix(0.69782779,0,0,0.67807574,-7.1598248,-4.864003)" /></g>
	
	
	
	<g
   id="XMLID_2764_">
		
	</g>
	
	
	
	<path
   id="XMLID_2612_"
   class="st92"
   d="m 12.247237,15.247456 c 0,-1.094891 5.463733,-1.891177 12.2934,-1.891177 6.829667,0 12.293401,0.895821 12.293401,1.891177 l -0.341484,-3.782353 c 0,-1.094891 -5.349906,-1.8911763 -11.951917,-1.8911763 -6.602011,0 -11.951917,0.8958203 -11.951917,1.8911763 z"
   style="stroke-width:1.06442" />
	<g
   id="XMLID_2608_"
   transform="matrix(1.1382779,0,0,0.99535599,-2.7780305,-0.67824005)">
		<path
   id="XMLID_2610_"
   class="st93"
   d="m 13.2,15.9 c 0,0.1 0,0.1 0,0 z" />
		<path
   id="XMLID_2609_"
   class="st93"
   d="m 24,10.2 c -5.8,0 -10.5,0.9 -10.5,1.9 l -0.3,3.8 c 0.2,-1 4.9,-1.9 10.8,-1.9 0.6,0 1.1,0 1.7,0 2.5,-1 4.5,-2.2 5.7,-3.3 -1.9,-0.2 -4.5,-0.5 -7.4,-0.5 z" />
	</g>
	<path
   id="XMLID_2600_"
   class="st3"
   d="m 12.247237,15.247456 c 0,-1.094891 5.463733,-1.891177 12.2934,-1.891177 6.829667,0 12.293401,0.895821 12.293401,1.891177 l -0.341484,-3.782353 c 0,-1.094891 -5.349906,-1.8911763 -11.951917,-1.8911763 -6.602011,0 -11.951917,0.8958203 -11.951917,1.8911763 z"
   style="stroke-width:1.06442" />
	<path
   id="XMLID_2597_"
   class="st92"
   d="M 38.086143,6.5878588 C 35.468104,3.2036483 29.093749,2.4073636 24.540637,2.7059704 19.987526,3.0045772 13.726999,4.8957536 9.7430258,7.3841435 7.6941253,8.6781064 6.8973308,9.972069 7.5802975,10.768353 c 1.2521058,1.990713 8.0817725,2.48839 18.4401005,-1.1944263 5.919045,0.099535 10.472156,0.8958203 10.472156,1.8911763 0,0 3.756316,-1.9907119 1.593589,-4.8772442 z"
   style="stroke-width:1.06442" />
	<path
   id="XMLID_2596_"
   class="st66"
   d="M 8.0356084,11.166497 C 8.4909206,10.668818 9.0600594,10.270677 9.7430258,9.772998 13.726999,7.284608 19.987526,5.3934316 24.540637,5.0948248 29.093749,4.796218 35.468104,5.6920383 37.972316,8.9767132 38.086143,9.1757843 38.199971,9.3748556 38.313798,9.5739267 38.76911,8.7776419 38.882938,7.7822859 37.972316,6.4883232 35.468104,3.2036483 29.093749,2.4073636 24.540637,2.7059704 19.987526,3.0045772 13.726999,4.8957536 9.7430258,7.3841435 7.6941253,8.6781064 6.8973308,9.972069 7.5802975,10.768353 c 0.1138278,0.09953 0.2276556,0.298609 0.4553109,0.398144 z"
   style="stroke-width:1.06442" />
	<path
   id="XMLID_2595_"
   class="st3"
   d="M 38.086143,6.5878588 C 35.468104,3.2036483 29.093749,2.4073636 24.540637,2.7059704 19.987526,3.0045772 13.726999,4.8957536 9.7430258,7.3841435 7.6941253,8.6781064 6.8973308,9.972069 7.5802975,10.768353 c 1.2521058,1.990713 8.0817725,2.48839 18.4401005,-1.1944263 5.919045,0.099535 10.472156,0.8958203 10.472156,1.8911763 0,0 3.756316,-1.9907119 1.593589,-4.8772442 z"
   style="stroke-width:1.06442" />
	<path
   id="XMLID_2594_"
   class="st3"
   d="M 26.020398,9.5739267 C 27.613987,8.9767132 29.321404,8.3794996 31.028821,7.5832148"
   style="stroke-width:1.06442" />
	<path
   id="XMLID_2593_"
   class="st94"
   d="M 26.589537,2.5068992 C 26.703365,3.1041128 25.90657,3.7013264 24.768293,3.800862 23.630015,3.9003975 22.719393,3.5022552 22.605564,2.9050416 22.491737,2.307828 23.288532,1.7106144 24.42681,1.6110788 c 1.024449,-0.099535 2.048899,0.2986069 2.162727,0.8958204 z"
   style="stroke-width:1.06442" />
</g>
</svg>
